<?xml version="1.0" encoding="UTF-8"?>
<svg version="1.1" xmlns="http://www.w3.org/2000/svg" width="97" height="97">
<path d="M0 0 C2.93441209 1.70385218 3.61802345 4.06621345 4.9375 7.125 C5.59751079 8.46164056 6.26277189 9.79572795 6.9375 11.125 C7.82953125 10.31933594 8.7215625 9.51367188 9.640625 8.68359375 C10.82233252 7.6425657 12.00465652 6.60223715 13.1875 5.5625 C14.06728516 4.76295898 14.06728516 4.76295898 14.96484375 3.94726562 C16.703125 2.43359375 16.703125 2.43359375 19.9375 0.125 C25.40130929 0.81471923 28.64328256 5.02912228 31.9375 9.125 C35.10080283 14.47432511 36.75706928 19.69018293 35.6796875 25.890625 C33.57711614 32.22047141 29.43828662 37.40387964 23.9375 41.125 C25.484375 41.6509375 25.484375 41.6509375 27.0625 42.1875 C33.28643028 44.90339685 36.54774849 49.72021907 39.0625 55.875 C40.07025859 58.60556582 41.01635614 61.35377275 41.96484375 64.10546875 C42.47724609 65.56919922 42.47724609 65.56919922 43 67.0625 C43.45052734 68.40634766 43.45052734 68.40634766 43.91015625 69.77734375 C44.96059829 72.17778354 45.88033662 73.51901605 47.9375 75.125 C49.88749129 74.93028889 49.88749129 74.93028889 51.9375 74.125 C53.60269519 73.78439189 55.26907466 73.44941604 56.9375 73.125 C56.9375 74.115 56.9375 75.105 56.9375 76.125 C54.64671112 78.37754869 51.90147993 80.07042445 49.25 81.875 C48.52876953 82.39449219 47.80753906 82.91398437 47.06445312 83.44921875 C41.79229401 87.07954567 41.79229401 87.07954567 38.29296875 87.265625 C32.90326333 84.65568473 30.05905764 82.18414925 28.03125 76.578125 C27.48454017 74.84856102 26.95377581 73.11389117 26.4375 71.375 C23.11611654 61.00653669 23.11611654 61.00653669 16.9375 52.125 C14.17499964 50.74374982 11.99018901 50.93420694 8.9375 51.125 C6.44637028 53.61612972 6.52345641 54.93193781 6.0625 58.375 C5.18414289 63.72946495 3.82531731 67.23718269 -0.0625 71.125 C6.8675 71.62 6.8675 71.62 13.9375 72.125 C12.19992287 75.60015426 11.13675502 77.131214 8.4375 79.6875 C6.21653267 81.80024223 4.66007583 83.54113626 2.9375 86.125 C0.41552734 86.46557617 0.41552734 86.46557617 -2.7265625 86.41796875 C-3.84804688 86.40830078 -4.96953125 86.39863281 -6.125 86.38867188 C-7.8884375 86.3509668 -7.8884375 86.3509668 -9.6875 86.3125 C-11.46253906 86.29219727 -11.46253906 86.29219727 -13.2734375 86.27148438 C-16.20357539 86.23603916 -19.13281459 86.18662769 -22.0625 86.125 C-21.16885485 84.91504746 -20.27244221 83.70713889 -19.375 82.5 C-18.87613281 81.82710938 -18.37726562 81.15421875 -17.86328125 80.4609375 C-16.0625 78.125 -16.0625 78.125 -13.38598633 75.54443359 C-9.81486739 71.25693406 -10.43939194 66.36273508 -10.57421875 61.0390625 C-10.58129349 59.98214203 -10.58836823 58.92522156 -10.59565735 57.83627319 C-10.62355885 54.47345034 -10.68629245 51.11231628 -10.75 47.75 C-10.77508822 45.46486786 -10.79790047 43.17970952 -10.81835938 40.89453125 C-10.87337144 35.3041151 -10.9569558 29.71467822 -11.0625 24.125 C-12.80215287 30.13208389 -13.33146746 35.46520939 -13.30078125 41.69921875 C-13.3161858 43.51888779 -13.33248829 45.33854942 -13.34960938 47.15820312 C-13.3661107 49.99569214 -13.37495012 52.83263251 -13.36791992 55.67016602 C-13.36530217 58.43046973 -13.39337811 61.18913429 -13.42578125 63.94921875 C-13.41557449 64.79514084 -13.40536774 65.64106293 -13.39485168 66.51261902 C-13.46689869 70.85395321 -13.67636999 72.619495 -16.39526367 76.17895508 C-19.56222399 78.48960411 -21.22785442 78.57088902 -25.0625 78.125 C-24.258125 77.526875 -23.45375 76.92875 -22.625 76.3125 C-19.83922016 74.31552724 -19.83922016 74.31552724 -19.0625 71.125 C-18.96849211 69.70447029 -18.92722489 68.28006709 -18.9206543 66.85644531 C-18.91361984 65.99835266 -18.90658539 65.14026001 -18.89933777 64.25616455 C-18.89517349 63.3311615 -18.89100922 62.40615845 -18.88671875 61.453125 C-18.86351554 59.48957267 -18.839398 57.52603097 -18.81445312 55.5625 C-18.77938513 52.47063125 -18.75001806 49.37915253 -18.73657227 46.28710938 C-18.72104583 43.3003015 -18.68080204 40.31463046 -18.63671875 37.328125 C-18.63862717 36.41121887 -18.64053558 35.49431274 -18.64250183 34.54962158 C-18.5296412 28.59071798 -17.54798517 25.0047607 -14.0625 20.125 C-13.4025 19.795 -12.7425 19.465 -12.0625 19.125 C-11.7325 18.135 -11.4025 17.145 -11.0625 16.125 C-12.135 16.805625 -13.2075 17.48625 -14.3125 18.1875 C-17.72407733 20.15971002 -17.72407733 20.15971002 -20.5 19.875 C-21.015625 19.6275 -21.53125 19.38 -22.0625 19.125 C-18.24008629 13.9845126 -13.69923801 10.23864864 -8.68359375 6.2734375 C-6.04895173 4.19479196 -6.04895173 4.19479196 -3.8515625 1.859375 C-2.0625 0.125 -2.0625 0.125 0 0 Z M11.9375 12.125 C8.97581784 13.66025519 7.73613641 14.38836503 5.9375 17.125 C5.1531564 22.23406259 5.37390149 27.29255633 5.5625 32.4375 C5.59261718 33.85997003 5.61998995 35.28250098 5.64453125 36.70507812 C5.71043801 40.17965683 5.81385849 43.65194165 5.9375 47.125 C9.35689051 45.80243553 12.18074274 44.44822689 15.125 42.25 C15.79917969 41.75757812 16.47335938 41.26515625 17.16796875 40.7578125 C19.83838553 38.29371932 20.78716424 36.23503733 21.2734375 32.64453125 C21.36808298 26.08559959 20.66657158 20.66499452 16.9375 15.125 C14.39134615 13.03910256 14.39134615 13.03910256 11.9375 12.125 Z " fill="#FFFFFF" transform="translate(32.0625,4.875)"/>
</svg>
